<?xml version="1.0" encoding="UTF-8"?>
<svg width="27px" height="22px" viewBox="0 0 30 24" version="1.1" xmlns="http://www.w3.org/2000/svg" xmlns:xlink="http://www.w3.org/1999/xlink">
    <title>User-Fill</title>
    <g id="Symbols" stroke="none" stroke-width="1" fill="none" fill-rule="evenodd">
        <g id="Navigation-/-Loged-In" transform="translate(-1171.000000, -38.000000)">
            <g id="User-Fill" transform="translate(1171.000000, 38.000000)">
                <rect id="Rectangle" x="0" y="0" width="30" height="24"></rect>
                <path d="M20.998401,5.49156163 C21.0123003,7.72642503 19.6674014,9.74536067 17.6007266,10.5920833 C16.5930797,10.9971149 15.4902443,11.1033537 14.423901,10.8981146 C12.2422778,10.4667385 10.5365208,8.7602569 10.1046945,6.57707346 C9.6728683,4.39389003 10.6003685,2.16573918 12.4532498,0.935095634 C13.3698949,0.326581747 14.4451592,0.00138357792 15.5451335,0 C16.999452,0.00169461663 18.3932333,0.582893738 19.4184824,1.61516519 C19.9444737,2.11976328 20.3608623,2.72747449 20.6416452,3.40034776 C20.8944135,4.06781469 21.0155646,4.77797251 20.998401,5.49156163 L20.998401,5.49156163 Z" id="Path" fill="#1D1D1B" fill-rule="nonzero"></path>
                <path d="M24.4551123,23.0986281 C24.2501369,23.3846039 23.9898009,23.6135293 23.6941838,23.7677473 C23.3983515,23.9200838 23.0771534,23.9992302 22.7520818,24 L7.14700807,24 C6.48783427,24.0069098 5.8614436,23.6754169 5.44397758,23.0986281 C5.25228656,22.8363393 5.11597601,22.5281174 5.04539597,22.1973654 C4.98486801,21.8640055 4.98486801,21.5202186 5.04539597,21.1868587 C6.01097299,15.8401479 10.1711464,12 14.9978579,12 C19.8245693,12 23.9847428,15.8401479 24.9503198,21.1868587 C25.0165601,21.5241389 25.0165601,21.8737407 24.9503198,22.2110209 C24.8501831,22.5472844 24.6803953,22.8516113 24.4551123,23.0986281 L24.4551123,23.0986281 Z" id="Path" fill="#1D1D1B" fill-rule="nonzero"></path>
            </g>
        </g>
    </g>
</svg>
